<svg width="62" height="50" viewBox="0 0 62 50" fill="none" xmlns="http://www.w3.org/2000/svg">
<g clip-path="url(#clip0_167_770)">
<path d="M24.3571 3.60934C26.5363 3.60934 28.4694 3.89243 30.1565 4.4586C31.4218 4.88323 32.5113 5.59094 33.4252 6.58174C34.4093 7.50177 34.9014 8.74026 34.9014 10.2972C34.9014 12.0666 34.339 13.7651 33.2143 15.3928C32.1599 16.9498 30.6133 17.9052 28.5748 18.259C27.3095 18.4005 26.1848 18.1882 25.2007 17.6221C24.2166 16.9851 23.865 15.8174 24.1463 14.1189C26.0442 13.6943 27.415 12.9158 28.2585 11.7834C28.6803 11.1465 28.8912 10.5096 28.8912 9.87261C28.8912 8.6695 28.3991 7.85563 27.415 7.431C26.5011 6.93559 25.6224 6.6879 24.7789 6.6879C23.7245 6.6879 22.7052 6.82944 21.7211 7.11253C20.8072 7.32484 19.9637 7.71409 19.1905 8.28025C17.644 9.62492 16.8707 11.1818 16.8707 12.9512C16.8707 13.2343 16.9059 13.5528 16.9762 13.9066C17.1167 14.2604 17.2222 14.6143 17.2925 14.9682C17.644 15.8882 18.1712 16.7375 18.8741 17.5159C19.5771 18.2944 20.28 18.9668 20.983 19.5329C22.7404 20.8068 24.5329 22.1868 26.3605 23.673C28.2585 25.1592 29.6644 26.9639 30.5782 29.087C31.2812 30.5732 31.6327 32.0948 31.6327 33.6518C31.6327 35.7749 31.1054 37.7211 30.051 39.4904C28.9966 41.189 27.8016 42.5336 26.466 43.5244C28.7857 42.5336 31.0351 40.7997 33.2143 38.3227C35.4637 35.7749 37.3969 33.2625 39.0136 30.7856C40.068 29.1579 41.017 27.6362 41.8605 26.2208C42.4695 25.2305 43.0781 24.1773 43.687 23.0613L42.5144 14.6416L51.1959 6.44624L51.6922 6.68148L48.0713 14.4264C48.0674 14.4268 47.4975 14.4619 47.2246 14.9408C46.9231 15.47 47.2018 16.1508 47.75 16.4106C48.2983 16.6704 49.0201 16.5037 49.2925 15.9208C49.5258 15.4219 49.1486 14.9385 49.1467 14.9361L52.7675 7.19101L53.2638 7.42623L52.606 19.4239L45.6565 24.2038C45.5159 24.9116 45.2698 25.6192 44.9184 26.327C43.6531 28.4501 42.4581 30.4317 41.3333 32.2718C40.2086 34.0411 38.8378 35.9873 37.2211 38.1104C33.9875 42.4275 30.5431 45.5061 26.8878 47.3461C23.2324 49.1154 18.9093 50 13.9184 50C11.5283 50 9.27891 49.6815 7.17007 49.0446C5.06122 48.4076 3.33901 47.4169 2.0034 46.0722C0.6678 44.7275 1.16674e-07 43.029 0 40.9766C0 39.4196 0.456916 37.8981 1.37075 36.4119C2.35487 34.9257 3.72562 34.1826 5.48299 34.1826C6.25623 34.1826 6.95918 34.3596 7.59184 34.7134C8.22449 35.0672 8.64626 35.5273 8.85714 36.0934C8.78684 36.1642 8.61111 36.4119 8.32993 36.8365C8.04875 37.1903 7.87302 37.4381 7.80272 37.5796C7.17007 38.8535 6.85374 40.0212 6.85374 41.0828C6.85374 42.569 7.38095 43.7721 8.43537 44.6921C9.56009 45.6122 11.0011 46.0722 12.7585 46.0722C15.0782 46.0014 17.0816 45.1876 18.7687 43.6306C20.5261 42.0029 21.4048 40.092 21.4048 37.8981C21.4048 36.6242 21.1235 35.4211 20.5612 34.2887C19.6474 32.3779 18.4173 30.7502 16.8707 29.4055C15.3946 27.9901 13.9535 26.5746 12.5476 25.1592C11.212 23.7438 10.2279 22.0453 9.59524 20.0637C9.31406 19.1436 9.17347 18.0114 9.17347 16.6667C9.17347 15.322 9.34921 14.0127 9.70068 12.7389C10.0522 11.3942 10.5793 10.2619 11.2823 9.34183C12.2664 7.99717 13.7426 6.75867 15.7109 5.62633C18.1712 4.28167 21.0533 3.60934 24.3571 3.60934ZM46.5031 0.806753L46.3085 1.21926L52.3552 4.10985L52.5499 3.69746L54.2373 4.50421L54.0427 4.91661L60.0895 7.80731L60.2841 7.39493L61.9715 8.20168L61.3231 9.57663L59.6356 8.76988L59.8301 8.35728L55.8889 6.4732C55.9212 6.50735 55.9533 6.54169 55.9851 6.57635C56.7718 7.43511 57.3831 8.43481 57.7842 9.51838C58.1852 10.602 58.3681 11.7482 58.3225 12.8916C58.2768 14.0351 58.0035 15.1533 57.5181 16.1825L58.0806 16.4515L57.4321 17.8264L55.7446 17.0196L56.3931 15.6447L56.9323 15.9024C57.3823 14.9484 57.6356 13.912 57.678 12.8521C57.7203 11.7923 57.5508 10.7298 57.179 9.7254C56.8073 8.72101 56.2406 7.7943 55.5114 6.99828C54.9933 6.43275 54.4003 5.94105 53.7505 5.53644L53.5889 5.87917L51.9014 5.07242L52.0629 4.72969C51.3407 4.47844 50.5876 4.32656 49.8248 4.27977C48.7512 4.21392 47.6798 4.35747 46.6718 4.70222C45.6636 5.04697 44.7386 5.5862 43.9496 6.28909C43.1604 6.99193 42.5227 7.84465 42.0728 8.7986L42.6121 9.05653L41.9637 10.4315L40.2762 9.62473L40.9246 8.24978L41.4871 8.51859C41.9725 7.48943 42.6605 6.56944 43.5118 5.81117C44.3631 5.05289 45.361 4.47122 46.4485 4.09928C47.5361 3.72735 48.692 3.5724 49.8502 3.64345C49.8969 3.64632 49.9436 3.6497 49.9902 3.6533L46.0491 1.76921L45.8546 2.18172L44.1671 1.37496L44.8156 0L46.5031 0.806753Z" fill="url(#paint0_linear_167_770)"/>
</g>
<defs>
<linearGradient id="paint0_linear_167_770" x1="53.6173" y1="5.9448" x2="3.15562" y2="46.9058" gradientUnits="userSpaceOnUse">
<stop stop-color="#5F7BFF"/>
<stop offset="1" stop-color="#CCC6D7"/>
</linearGradient>
<clipPath id="clip0_167_770">
<rect width="62" height="50" fill="white"/>
</clipPath>
</defs>
</svg>
